<svg width="50" height="51" viewBox="0 0 50 51" fill="none" xmlns="http://www.w3.org/2000/svg">
<path d="M49.839 14.7823C49.8084 12.6805 49.4197 10.5953 48.6756 8.6295C47.3734 5.27266 44.7218 2.61828 41.365 1.31886C39.4241 0.588628 37.3723 0.197135 35.2954 0.15271C32.6244 0.0333187 31.7775 0 24.9972 0C18.2169 0 17.3478 1.86182e-07 14.6962 0.15271C12.6222 0.197135 10.5703 0.588628 8.6295 1.31886C5.27266 2.61828 2.61828 5.27266 1.31886 8.6295C0.588627 10.5703 0.194358 12.6222 0.155486 14.6962C0.036095 17.3701 0 18.2169 0 24.9972C0 31.7775 -2.06869e-08 32.6438 0.155486 35.2982C0.197135 37.3751 0.588627 39.4241 1.31886 41.3705C2.62106 44.7246 5.27266 47.3789 8.63227 48.6784C10.5647 49.4336 12.6166 49.8612 14.699 49.9278C17.3728 50.0472 18.2197 50.0833 25 50.0833C31.7803 50.0833 32.6494 50.0833 35.301 49.9278C37.3751 49.8862 39.4269 49.4947 41.3705 48.7644C44.7273 47.4622 47.3789 44.8079 48.6811 41.4538C49.4114 39.5102 49.8029 37.4611 49.8445 35.3815C49.9639 32.7105 50 31.8636 50 25.0805C49.9944 18.3002 49.9944 17.4395 49.839 14.7823ZM24.9806 37.8193C17.8893 37.8193 12.1446 32.0746 12.1446 24.9833C12.1446 17.892 17.8893 12.1474 24.9806 12.1474C32.0663 12.1474 37.8165 17.892 37.8165 24.9833C37.8165 32.0746 32.0663 37.8193 24.9806 37.8193ZM38.3274 14.6657C36.6698 14.6657 35.3343 13.3274 35.3343 11.6726C35.3343 10.0178 36.6698 8.67948 38.3274 8.67948C39.9795 8.67948 41.3177 10.0178 41.3177 11.6726C41.3177 13.3274 39.9795 14.6657 38.3274 14.6657Z" fill="black"/>
<path d="M24.9806 33.3213C29.5855 33.3213 33.3186 29.5883 33.3186 24.9833C33.3186 20.3784 29.5855 16.6454 24.9806 16.6454C20.3757 16.6454 16.6426 20.3784 16.6426 24.9833C16.6426 29.5883 20.3757 33.3213 24.9806 33.3213Z" fill="black"/>
</svg>
