<svg width="1446" height="37" viewBox="0 0 1446 37" fill="none" xmlns="http://www.w3.org/2000/svg">
<path d="M144.6 13.2794C96.4 -4.42646 48.2 -4.42646 0 13.2794V36.1199H1446V13.2794C1397.8 30.9852 1349.6 30.9852 1301.4 13.2794C1253.2 -4.42646 1205 -4.42646 1156.8 13.2794C1108.6 30.9852 1060.4 30.9852 1012.2 13.2794C964 -4.42646 915.8 -4.42646 867.6 13.2794C819.4 30.9852 771.2 30.9852 723 13.2794C674.8 -4.42646 626.6 -4.42646 578.4 13.2794C530.2 30.9852 482 30.9852 433.8 13.2794C385.6 -4.42646 337.4 -4.42646 289.2 13.2794C241 30.9852 192.8 30.9852 144.6 13.2794Z" fill="#0D0D0D"/>
</svg>
