<svg width="169" height="278" viewBox="0 0 169 278" fill="none" xmlns="http://www.w3.org/2000/svg">
<path d="M135.261 254.164C135.259 254.74 135.342 255.28 135.508 255.784C135.662 256.301 135.901 256.752 136.224 257.137C136.546 257.522 136.959 257.823 137.463 258.041C137.954 258.27 138.53 258.386 139.19 258.388C140.474 258.393 141.489 258.03 142.235 257.3C142.97 256.571 143.441 255.534 143.649 254.191L135.261 254.164ZM143.748 251.509C143.679 250.561 143.514 249.739 143.252 249.042C142.99 248.357 142.644 247.786 142.214 247.328C141.783 246.883 141.274 246.545 140.687 246.315C140.088 246.097 139.428 245.987 138.708 245.985C137.988 245.982 137.37 246.064 136.853 246.231C136.325 246.397 135.868 246.581 135.484 246.784C135.087 246.987 134.744 247.172 134.456 247.339C134.155 247.506 133.867 247.589 133.591 247.588C133.219 247.587 132.943 247.448 132.764 247.171L131.492 245.547C131.985 244.973 132.539 244.489 133.152 244.095C133.766 243.713 134.409 243.403 135.081 243.165C135.742 242.939 136.421 242.779 137.117 242.686C137.801 242.592 138.467 242.546 139.115 242.548C140.399 242.552 141.593 242.766 142.695 243.19C143.798 243.625 144.756 244.259 145.569 245.089C146.382 245.932 147.021 246.966 147.485 248.192C147.949 249.429 148.178 250.858 148.173 252.478C148.169 253.738 147.961 254.919 147.549 256.022C147.138 257.136 146.553 258.101 145.794 258.914C145.023 259.74 144.091 260.39 142.997 260.867C141.892 261.343 140.649 261.579 139.269 261.575C138.105 261.571 137.032 261.381 136.049 261.006C135.066 260.631 134.222 260.082 133.516 259.36C132.811 258.649 132.262 257.772 131.869 256.726C131.464 255.693 131.264 254.51 131.269 253.178C131.271 252.506 131.344 252.051 131.489 251.811C131.634 251.584 131.91 251.471 132.318 251.472L143.748 251.509Z" fill="white"/>
<path d="M115.488 256.619C115.039 256.893 114.579 257.134 114.109 257.341C113.625 257.557 113.135 257.716 112.641 257.819C112.133 257.93 111.608 257.982 111.066 257.974C110.522 257.978 109.947 257.907 109.34 257.76C108.361 257.522 107.533 257.143 106.857 256.621C106.178 256.111 105.661 255.492 105.306 254.764C104.937 254.044 104.726 253.234 104.673 252.332C104.606 251.439 104.693 250.491 104.936 249.488L107.704 238.065L112.025 239.112L109.257 250.535C108.992 251.631 109.038 252.538 109.395 253.254C109.749 253.982 110.44 254.47 111.466 254.719C112.213 254.9 112.953 254.9 113.688 254.72C114.423 254.54 115.153 254.229 115.878 253.787L119.023 240.807L123.344 241.854L118.995 259.803L116.353 259.163C115.793 259.027 115.49 258.676 115.442 258.108L115.488 256.619Z" fill="white"/>
<path d="M93.9644 231.881C95.4161 232.573 96.3384 233.511 96.7313 234.695C97.1083 235.885 96.9536 237.2 96.2672 238.641L91.8314 247.952L93.5377 248.765C93.7544 248.868 93.905 249.026 93.9896 249.239C94.0741 249.453 94.0493 249.7 93.9152 249.982L93.1565 251.574L90.2662 250.736L87.2536 254.883C87.0962 255.074 86.9133 255.193 86.7049 255.24C86.4964 255.287 86.2731 255.253 86.0347 255.14L83.9547 254.149L86.4551 248.9L82.0025 246.779L83.365 243.919L87.8176 246.04L92.1218 237.005C92.3695 236.485 92.4384 236.019 92.3286 235.608C92.2079 235.192 91.9255 234.878 91.4813 234.666C91.2322 234.547 91.0134 234.476 90.8251 234.453C90.6208 234.436 90.4436 234.431 90.2935 234.439C90.1325 234.442 89.9904 234.448 89.8671 234.455C89.7386 234.474 89.6256 234.46 89.5281 234.414C89.4089 234.357 89.3269 234.278 89.282 234.177C89.232 234.086 89.192 233.961 89.1621 233.801L88.8886 231.278C89.7058 231.069 90.553 231.02 91.43 231.133C92.3071 231.245 93.1519 231.494 93.9644 231.881Z" fill="white"/>
<path d="M71.0808 236.316C69.971 236.881 68.9125 237.187 67.9054 237.236C66.8913 237.294 65.9445 237.009 65.0651 236.383C64.3713 235.888 63.9222 235.34 63.718 234.737L65.8853 232.193C66.0595 232.052 66.2234 231.977 66.3768 231.968C66.5135 231.963 66.66 232.015 66.8164 232.127C66.963 232.231 67.1654 232.412 67.4238 232.67C67.6723 232.921 67.9334 233.144 68.207 233.339C68.6076 233.625 69.0061 233.82 69.4024 233.926C69.7987 234.031 70.2039 234.062 70.6182 234.019C71.0157 233.978 71.4236 233.871 71.842 233.697C72.2505 233.517 72.6806 233.286 73.1323 233.004L79.7352 223.74L83.3557 226.321L72.6364 241.359L70.511 239.844C70.1397 239.58 69.9295 239.327 69.8804 239.085C69.8244 238.854 69.8938 238.55 70.0888 238.173L71.0808 236.316Z" fill="white"/>
<path d="M52.5767 214.435C52.155 214.828 51.8168 215.257 51.5622 215.723C51.2907 216.189 51.1247 216.671 51.0642 217.17C51.0037 217.669 51.066 218.176 51.2512 218.692C51.4194 219.208 51.7282 219.707 52.1777 220.19C53.0523 221.131 54.0109 221.624 55.0536 221.67C56.0881 221.707 57.1669 221.343 58.2899 220.577L52.5767 214.435ZM60.3149 218.816C60.96 218.118 61.4474 217.435 61.7772 216.767C62.0982 216.108 62.2785 215.465 62.3181 214.838C62.349 214.22 62.2476 213.617 62.014 213.031C61.7635 212.445 61.3931 211.888 60.9027 211.361C60.4123 210.834 59.9298 210.439 59.4554 210.175C58.9727 209.903 58.526 209.696 58.115 209.554C57.696 209.403 57.3268 209.279 57.0077 209.183C56.6803 209.077 56.4227 208.924 56.2347 208.722C55.9813 208.449 55.8944 208.153 55.9738 207.833L56.2895 205.794C57.0463 205.762 57.7782 205.835 58.4849 206.014C59.1829 206.2 59.8486 206.458 60.4821 206.786C61.0986 207.114 61.679 207.5 62.2233 207.945C62.7595 208.38 63.2482 208.835 63.6896 209.309C64.5642 210.249 65.2236 211.267 65.6681 212.361C66.1037 213.464 66.2963 214.596 66.2459 215.757C66.1866 216.927 65.8683 218.1 65.2909 219.276C64.7047 220.46 63.8185 221.604 62.6324 222.708C61.7098 223.566 60.7055 224.222 59.6192 224.675C58.5242 225.136 57.4205 225.368 56.3082 225.37C55.1788 225.372 54.0665 225.137 52.9713 224.664C51.8679 224.183 50.8463 223.437 49.9063 222.426C49.1135 221.574 48.5182 220.661 48.1203 219.687C47.7225 218.713 47.546 217.722 47.591 216.713C47.6271 215.713 47.8925 214.712 48.3872 213.711C48.8649 212.709 49.5914 211.755 50.5667 210.848C51.0587 210.39 51.4416 210.132 51.7154 210.074C51.9804 210.024 52.2519 210.148 52.5298 210.447L60.3149 218.816Z" fill="white"/>
<path d="M31.6297 179.05C31.0971 179.269 30.6298 179.553 30.2278 179.9C29.8101 180.241 29.4854 180.634 29.2537 181.08C29.0221 181.526 28.9024 182.023 28.8946 182.571C28.8712 183.113 28.9851 183.689 29.2365 184.299C29.7255 185.486 30.4501 186.284 31.4103 186.694C32.366 187.092 33.504 187.129 34.8244 186.806L31.6297 179.05ZM37.3385 185.867C38.1876 185.44 38.8837 184.971 39.4267 184.462C39.9586 183.958 40.3531 183.419 40.6102 182.846C40.8562 182.277 40.9726 181.678 40.9595 181.047C40.9307 180.41 40.7792 179.759 40.505 179.093C40.2307 178.427 39.9177 177.888 39.5658 177.475C39.2094 177.05 38.8637 176.7 38.5289 176.422C38.1894 176.134 37.8872 175.888 37.6222 175.686C37.3526 175.473 37.1652 175.238 37.0601 174.983C36.9184 174.639 36.9409 174.331 37.1275 174.06L38.1387 172.261C38.8587 172.497 39.5183 172.822 40.1175 173.237C40.7057 173.657 41.2387 174.132 41.7165 174.661C42.1787 175.185 42.5867 175.75 42.9406 176.357C43.2898 176.953 43.5879 177.55 43.8347 178.15C44.3237 179.337 44.5843 180.521 44.6164 181.702C44.6374 182.887 44.4206 184.015 43.9657 185.084C43.4998 186.159 42.7901 187.145 41.8366 188.044C40.872 188.948 39.6408 189.708 38.1429 190.325C36.9778 190.805 35.8072 191.067 34.631 191.11C33.4438 191.158 32.3289 190.987 31.2865 190.599C30.2284 190.204 29.2695 189.594 28.4097 188.767C27.5454 187.929 26.8505 186.872 26.3249 185.596C25.8816 184.519 25.6445 183.456 25.6137 182.404C25.5829 181.352 25.7655 180.362 26.1616 179.433C26.5466 178.509 27.1463 177.665 27.9608 176.901C28.7597 176.131 29.7749 175.492 31.0065 174.985C31.6278 174.729 32.0769 174.622 32.3536 174.664C32.6193 174.71 32.8298 174.922 32.9852 175.299L37.3385 185.867Z" fill="white"/>
<path d="M37.9585 163.608L19.6028 165.642L19.3035 162.94C19.2401 162.368 19.4669 161.962 19.9838 161.724L21.3117 161.287C20.9183 161.005 20.5533 160.707 20.2168 160.394C19.879 160.069 19.5809 159.722 19.3226 159.352C19.063 158.97 18.8485 158.56 18.679 158.12C18.4963 157.669 18.3745 157.169 18.3138 156.621C18.1856 155.464 18.3966 154.481 18.9468 153.671C19.4838 152.851 20.2507 152.199 21.2473 151.714C20.6074 151.495 20.0489 151.195 19.572 150.813C19.0831 150.432 18.6731 150.001 18.342 149.518C18.0108 149.036 17.748 148.516 17.5533 147.958C17.3574 147.388 17.2271 146.811 17.1623 146.226C17.05 145.212 17.1053 144.295 17.3282 143.473C17.5511 142.652 17.931 141.94 18.4679 141.337C19.0048 140.734 19.6875 140.248 20.5158 139.878C21.3429 139.497 22.311 139.245 23.4202 139.122L35.1027 137.828L35.5922 142.247L23.9097 143.541C22.7409 143.671 21.8926 144.024 21.365 144.602C20.8255 145.181 20.6105 145.965 20.7202 146.955C20.7704 147.408 20.8948 147.823 21.0935 148.199C21.2908 148.564 21.5551 148.879 21.8863 149.144C22.2042 149.398 22.5931 149.585 23.0529 149.703C23.5127 149.821 24.0289 149.848 24.6014 149.785L36.2839 148.491L36.7754 152.928L25.0928 154.222C23.8644 154.358 22.9976 154.707 22.4925 155.27C21.9861 155.821 21.7857 156.574 21.8914 157.528C21.9628 158.172 22.1905 158.757 22.5746 159.282C22.9455 159.796 23.4317 160.261 24.0332 160.678L37.469 159.189L37.9585 163.608Z" fill="white"/>
<path d="M28.0672 98.9698C28.1905 99.1443 28.2793 99.3085 28.3336 99.4624C28.3913 99.6048 28.3859 99.791 28.3174 100.021C28.2523 100.24 28.1256 100.433 27.9375 100.603C27.7378 100.769 27.5146 100.971 27.2679 101.211C27.0097 101.447 26.7574 101.747 26.511 102.112C26.2565 102.462 26.0418 102.93 25.8671 103.517C25.6443 104.264 25.587 104.961 25.6951 105.607C25.7917 106.249 26.0364 106.835 26.4294 107.366C26.8257 107.885 27.3587 108.344 28.0284 108.744C28.6866 109.14 29.47 109.474 30.3785 109.745C31.3215 110.026 32.1902 110.178 32.9845 110.202C33.7822 110.214 34.4906 110.106 35.1097 109.877C35.7173 109.645 36.2338 109.298 36.6594 108.836C37.0735 108.371 37.3816 107.799 37.5838 107.121C37.786 106.442 37.8682 105.872 37.8306 105.41C37.7849 104.933 37.7071 104.522 37.5973 104.176C37.4759 103.827 37.3656 103.525 37.2663 103.27C37.1589 103 37.1446 102.733 37.2234 102.468C37.3262 102.123 37.5356 101.904 37.8515 101.81L39.769 101.048C40.1805 101.684 40.4938 102.335 40.7088 103C40.9123 103.661 41.04 104.325 41.0918 104.992C41.1355 105.644 41.1092 106.299 41.0127 106.959C40.9196 107.608 40.7806 108.243 40.5956 108.864C40.27 109.956 39.762 110.925 39.0717 111.771C38.3698 112.614 37.5199 113.281 36.522 113.773C35.5241 114.264 34.3982 114.555 33.1444 114.644C31.8825 114.719 30.5271 114.541 29.078 114.109C27.7785 113.722 26.6315 113.18 25.6372 112.483C24.6347 111.771 23.8389 110.933 23.2498 109.968C22.6492 109 22.2782 107.913 22.1369 106.706C21.9956 105.5 22.1322 104.201 22.5469 102.809C22.941 101.487 23.4981 100.394 24.2183 99.5321C24.942 98.6584 25.8188 97.943 26.8488 97.3859L28.0672 98.9698Z" fill="white"/>
<path d="M32.9376 78.6826C33.6112 77.4919 34.416 76.5202 35.3519 75.7675C36.2938 75.0044 37.3148 74.479 38.415 74.1915C39.5211 73.8935 40.6923 73.846 41.9286 74.0491C43.1649 74.2522 44.4149 74.7112 45.6787 75.4262C46.9529 76.147 47.9954 76.985 48.8063 77.9401C49.6171 78.8951 50.1849 79.9264 50.5097 81.0339C50.8404 82.1309 50.9212 83.2796 50.7522 84.48C50.5892 85.67 50.1708 86.8603 49.4972 88.051C48.8177 89.2521 48.007 90.2342 47.0651 90.9974C46.1233 91.7605 45.0941 92.2881 43.9775 92.5802C42.8668 92.8618 41.6904 92.9063 40.4483 92.7137C39.212 92.5106 37.9567 92.0487 36.6825 91.3278C35.4187 90.6128 34.3814 89.7778 33.5706 88.8228C32.7657 87.8572 32.2031 86.8289 31.8828 85.7378C31.5685 84.6362 31.4958 83.4852 31.6648 82.2848C31.8338 81.0844 32.2581 79.8837 32.9376 78.6826ZM46.5205 86.367C47.2769 85.0301 47.3861 83.789 46.8484 82.6437C46.3165 81.488 45.1837 80.4197 43.4499 79.4389C41.7161 78.458 40.2117 78.0343 38.9367 78.1678C37.6676 78.2909 36.6549 79.0208 35.8986 80.3577C35.1304 81.7155 35.0198 82.9834 35.5666 84.1613C36.109 85.323 37.2418 86.3912 38.9651 87.3662C40.6884 88.3411 42.1876 88.7619 43.4626 88.6284C44.7331 88.4785 45.7524 87.7247 46.5205 86.367Z" fill="white"/>
<path d="M49.359 59.7866C49.3424 59.2607 49.3601 58.7423 49.4119 58.2313C49.4631 57.7033 49.5661 57.1992 49.7207 56.7189C49.8748 56.2217 50.0889 55.7395 50.3628 55.2725C50.6279 54.7972 50.9741 54.3321 51.4012 53.8772C52.0911 53.1423 52.8299 52.6096 53.6175 52.2792C54.3964 51.9405 55.1898 51.7966 55.9979 51.8476C56.8055 51.8815 57.6146 52.098 58.4252 52.4969C59.2352 52.8788 60.0165 53.423 60.7688 54.1294L69.3379 62.1747L66.2948 65.416L57.7257 57.3707C56.9033 56.5986 56.0924 56.1912 55.2931 56.1485C54.485 56.0976 53.7195 56.457 52.9967 57.2269C52.471 57.7868 52.1051 58.4308 51.8988 59.1589C51.6926 59.887 51.6028 60.6751 51.6295 61.5232L61.3666 70.6651L58.3234 73.9064L44.8595 61.2655L46.7199 59.284C47.1142 58.8641 47.5697 58.7733 48.0866 59.0117L49.359 59.7866Z" fill="white"/>
<path d="M81.4969 53.2766C80.179 54.1978 78.9081 54.5371 77.6843 54.2945C76.4635 54.0351 75.3959 53.2514 74.4816 51.9433L68.5725 43.4898L67.0234 44.5726C66.8267 44.7101 66.6149 44.763 66.3878 44.7314C66.1607 44.6998 65.9578 44.5562 65.7791 44.3004L64.7684 42.8546L66.9242 40.7547L64.8039 36.0876C64.7156 35.8566 64.7025 35.6388 64.7645 35.4344C64.8266 35.2299 64.9658 35.0521 65.1822 34.9008L67.0706 33.5808L70.4015 38.3461L74.4439 35.5204L76.2589 38.117L72.2165 40.9426L77.9503 49.1453C78.2803 49.6174 78.6512 49.9072 79.063 50.0146C79.4847 50.1152 79.8972 50.0245 80.3004 49.7426C80.5266 49.5845 80.6963 49.4293 80.8095 49.277C80.9256 49.108 81.0171 48.9561 81.084 48.8215C81.1608 48.68 81.2263 48.5537 81.2804 48.4427C81.3277 48.3218 81.3956 48.2304 81.4841 48.1685C81.5923 48.0929 81.7014 48.0605 81.8115 48.0714C81.9148 48.0725 82.0435 48.0996 82.1978 48.1528L84.527 49.16C84.3053 49.9739 83.9293 50.7345 83.3989 51.442C82.8686 52.1494 82.2346 52.761 81.4969 53.2766Z" fill="white"/>
<path d="M97.1876 35.5807C96.0353 36.1503 95.0915 36.6876 94.3563 37.1927C93.6163 37.6867 93.0549 38.1549 92.6721 38.5974C92.2894 39.0399 92.0609 39.4608 91.9867 39.86C91.9125 40.2592 91.9548 40.6402 92.1135 41.003C92.4261 41.7176 92.8586 42.1375 93.4111 42.2625C93.9745 42.3828 94.5971 42.2938 95.2787 41.9956C96.1142 41.6301 96.7694 41.1666 97.2442 40.6053C97.7252 40.0281 98.1224 39.3042 98.4357 38.4336L97.1876 35.5807ZM84.6433 32.3256C85.81 29.6933 87.7622 27.7783 90.4997 26.5807C91.4891 26.1479 92.4463 25.9256 93.3711 25.9139C94.2912 25.8913 95.148 26.0534 95.9416 26.4005C96.7305 26.7365 97.4378 27.2456 98.0638 27.928C98.7007 28.6055 99.2284 29.4225 99.6469 30.3789L104.322 41.0651L102.475 41.8731C102.09 42.0414 101.769 42.1163 101.512 42.0978C101.25 42.0682 100.982 41.904 100.707 41.6051L99.8106 40.5435C99.5502 41.1158 99.2815 41.6394 99.0046 42.1142C98.7228 42.578 98.4054 43.005 98.0522 43.3953C97.699 43.7856 97.2912 44.1408 96.8288 44.461C96.3821 44.7874 95.8565 45.0829 95.2518 45.3474C94.5372 45.66 93.8367 45.8551 93.1503 45.9328C92.459 45.9994 91.8094 45.9365 91.2013 45.7441C90.5932 45.5517 90.0431 45.2226 89.5512 44.7567C89.0592 44.2908 88.6473 43.6786 88.3154 42.92C88.1278 42.4913 88.0141 42.0367 87.9743 41.5564C87.9296 41.0651 87.9825 40.5574 88.133 40.0331C88.2945 39.504 88.5591 38.956 88.9267 38.3892C89.2943 37.8223 89.7966 37.2489 90.4335 36.669C91.0815 36.0843 91.872 35.4961 92.8052 34.9045C93.7335 34.3019 94.8336 33.7028 96.1054 33.1071L95.6725 32.1176C95.1772 30.9852 94.5698 30.2555 93.8503 29.9284C93.1261 29.5904 92.3078 29.6209 91.3953 30.0201C90.7356 30.3087 90.2196 30.6261 89.8472 30.9724C89.4857 31.3139 89.1834 31.6558 88.9402 31.998C88.6921 32.3291 88.4643 32.6318 88.2568 32.906C88.0603 33.1753 87.7971 33.3821 87.4673 33.5264C87.1815 33.6515 86.9083 33.6858 86.6479 33.6295C86.3827 33.5621 86.1463 33.456 85.9388 33.311L84.6433 32.3256Z" fill="white"/>
<path d="M118.982 37.4572C117.411 37.7998 116.107 37.6235 115.072 36.9283C114.045 36.2188 113.361 35.0843 113.021 33.525L110.823 23.4479L108.977 23.8506C108.742 23.9017 108.526 23.869 108.329 23.7524C108.132 23.6358 108 23.425 107.933 23.1202L107.557 21.3967L110.356 20.289L110.196 15.1653C110.204 14.9181 110.275 14.712 110.411 14.5473C110.547 14.3825 110.744 14.272 111.002 14.2157L113.253 13.7248L114.492 19.4053L119.311 18.3543L119.986 21.4496L115.167 22.5005L117.3 32.2787C117.423 32.8414 117.653 33.2517 117.992 33.5094C118.343 33.7646 118.758 33.8398 119.239 33.735C119.508 33.6762 119.725 33.5983 119.888 33.5013C120.06 33.39 120.203 33.2852 120.317 33.1867C120.442 33.0857 120.551 32.9943 120.644 32.9127C120.734 32.8193 120.832 32.7611 120.937 32.7381C121.066 32.71 121.18 32.7222 121.277 32.7746C121.372 32.8153 121.48 32.8899 121.602 32.9985L123.364 34.825C122.846 35.4907 122.206 36.0479 121.444 36.4965C120.682 36.9452 119.861 37.2654 118.982 37.4572Z" fill="white"/>
<path d="M138.635 16.3273C140.003 16.3165 141.247 16.5287 142.366 16.9639C143.498 17.399 144.463 18.0214 145.261 18.8312C146.072 19.6408 146.697 20.6319 147.139 21.8045C147.58 22.977 147.806 24.2893 147.818 25.7413C147.829 27.2052 147.624 28.5269 147.201 29.7062C146.778 30.8856 146.168 31.8924 145.371 32.7267C144.585 33.561 143.63 34.2045 142.506 34.6574C141.393 35.1101 140.153 35.3419 138.785 35.3527C137.405 35.3635 136.149 35.1514 135.018 34.7163C133.887 34.2812 132.916 33.6528 132.105 32.8312C131.307 32.0095 130.681 31.0124 130.227 29.8399C129.786 28.6673 129.56 27.3491 129.548 25.8851C129.537 24.4332 129.743 23.1175 130.165 21.9381C130.6 20.7587 131.21 19.7578 131.996 18.9356C132.793 18.1133 133.754 17.4757 134.879 17.0229C136.003 16.57 137.255 16.3381 138.635 16.3273ZM138.758 31.9328C140.294 31.9207 141.424 31.3958 142.148 30.358C142.884 29.3202 143.244 27.8053 143.228 25.8134C143.212 23.8215 142.829 22.3064 142.076 21.2683C141.336 20.2301 140.198 19.7171 138.662 19.7292C137.102 19.7414 135.948 20.2785 135.201 21.3405C134.465 22.3903 134.105 23.9052 134.12 25.8851C134.136 27.8651 134.52 29.3741 135.272 30.4122C136.036 31.4382 137.198 31.9451 138.758 31.9328Z" fill="white"/>
</svg>
