<svg width="50" height="50" viewBox="0 0 50 50" fill="none" xmlns="http://www.w3.org/2000/svg">
<path d="M46.2965 0H3.69097C1.65347 0 0 1.61458 0 3.60278V46.3924C0 48.3833 1.65347 50 3.69097 50H46.2965C48.3354 50 50 48.3833 50 46.3924V3.60278C50 1.61458 48.3354 0 46.2965 0ZM14.8292 42.6069H7.40972V18.7465H14.8292V42.6069ZM11.1194 15.484C8.74236 15.484 6.82083 13.5576 6.82083 11.1826C6.82083 8.81111 8.74236 6.88472 11.1194 6.88472C13.491 6.88472 15.4174 8.81111 15.4174 11.1826C15.4174 13.5576 13.491 15.484 11.1194 15.484ZM42.6042 42.6069H35.1965V31.0042C35.1965 28.2361 35.1424 24.6771 31.3417 24.6771C27.4819 24.6771 26.8937 27.6917 26.8937 30.8035V42.6076H19.4806V18.7465H26.5951V22.0049H26.6965C27.6868 20.1299 30.1062 18.1514 33.7146 18.1514C41.2188 18.1514 42.6049 23.0917 42.6049 29.5187V42.6069H42.6042Z" fill="black"/>
</svg>
