<svg width="20" height="23" viewBox="0 0 20 23" fill="none" xmlns="http://www.w3.org/2000/svg">
<path d="M6.048 13.516H3.6V12.304H6.264L6.624 10H0.72V19H3.6V15.664H6.048V13.516ZM12.6654 19H7.49344V10H12.1614C13.0254 10 13.6414 10.168 14.0094 10.504C14.3774 10.84 14.5614 11.328 14.5614 11.968C14.5614 12.616 14.4454 13.116 14.2134 13.468C13.9814 13.812 13.6654 14.04 13.2654 14.152V14.236C14.4254 14.436 15.0054 15.228 15.0054 16.612C15.0054 17.332 14.8134 17.912 14.4294 18.352C14.0534 18.784 13.4654 19 12.6654 19ZM11.5014 15.412H10.3734V16.888H11.4774C11.8854 16.888 12.0894 16.64 12.0894 16.144C12.0894 15.656 11.8934 15.412 11.5014 15.412ZM11.2854 11.968H10.3734V13.312H11.2614C11.6294 13.312 11.8134 13.088 11.8134 12.64C11.8134 12.192 11.6374 11.968 11.2854 11.968ZM16.901 16.864C17.221 16.864 17.485 16.968 17.693 17.176C17.909 17.384 18.017 17.656 18.017 17.992C18.017 18.328 17.909 18.6 17.693 18.808C17.485 19.016 17.221 19.12 16.901 19.12C16.581 19.12 16.313 19.012 16.097 18.796C15.881 18.58 15.773 18.312 15.773 17.992C15.773 17.656 15.881 17.384 16.097 17.176C16.313 16.968 16.581 16.864 16.901 16.864Z" fill="white"/>
<g clip-path="url(#clip0_69_27)">
<circle cx="11" cy="9" r="9" fill="white"/>
<path d="M6.048 13.516H3.6V12.304H6.264L6.624 10H0.72V19H3.6V15.664H6.048V13.516ZM12.6654 19H7.49344V10H12.1614C13.0254 10 13.6414 10.168 14.0094 10.504C14.3774 10.84 14.5614 11.328 14.5614 11.968C14.5614 12.616 14.4454 13.116 14.2134 13.468C13.9814 13.812 13.6654 14.04 13.2654 14.152V14.236C14.4254 14.436 15.0054 15.228 15.0054 16.612C15.0054 17.332 14.8134 17.912 14.4294 18.352C14.0534 18.784 13.4654 19 12.6654 19ZM11.5014 15.412H10.3734V16.888H11.4774C11.8854 16.888 12.0894 16.64 12.0894 16.144C12.0894 15.656 11.8934 15.412 11.5014 15.412ZM11.2854 11.968H10.3734V13.312H11.2614C11.6294 13.312 11.8134 13.088 11.8134 12.64C11.8134 12.192 11.6374 11.968 11.2854 11.968ZM16.901 16.864C17.221 16.864 17.485 16.968 17.693 17.176C17.909 17.384 18.017 17.656 18.017 17.992C18.017 18.328 17.909 18.6 17.693 18.808C17.485 19.016 17.221 19.12 16.901 19.12C16.581 19.12 16.313 19.012 16.097 18.796C15.881 18.58 15.773 18.312 15.773 17.992C15.773 17.656 15.881 17.384 16.097 17.176C16.313 16.968 16.581 16.864 16.901 16.864Z" fill="#0D0D0D"/>
</g>
<defs>
<clipPath id="clip0_69_27">
<rect x="2" width="18" height="18" rx="9" fill="white"/>
</clipPath>
</defs>
</svg>
