<svg width="48" height="48" viewBox="0 0 48 48" fill="none" xmlns="http://www.w3.org/2000/svg">
<path fill-rule="evenodd" clip-rule="evenodd" d="M23.8981 0C10.7017 0 0 10.7017 0 23.9011C0 34.4594 6.84766 43.4193 16.3453 46.5802C17.5404 46.7983 17.9766 46.0604 17.9766 45.427C17.9766 44.8593 17.9557 43.3566 17.9437 41.3608C11.2962 42.8038 9.89206 38.1581 9.89206 38.1581C8.80456 35.3975 7.23904 34.6625 7.23904 34.6625C5.07002 33.1807 7.40336 33.2105 7.40336 33.2105C9.80243 33.3808 11.0632 35.6724 11.0632 35.6724C13.1964 39.3262 16.6561 38.2716 18.0184 37.6591C18.2365 36.1145 18.852 35.0599 19.5361 34.4654C14.2301 33.8619 8.6492 31.8123 8.6492 22.6522C8.6492 20.044 9.58134 17.9109 11.108 16.2378C10.866 15.6343 10.0444 13.2024 11.347 9.91297C11.347 9.91297 13.3547 9.27063 17.9198 12.3628C19.8259 11.834 21.8695 11.5681 23.9011 11.5592C25.9297 11.5681 27.9762 11.834 29.8853 12.3628C34.4474 9.27063 36.4521 9.91297 36.4521 9.91297C37.7547 13.2024 36.9361 15.6343 36.6911 16.2378C38.2238 17.9079 39.147 20.0411 39.147 22.6522C39.147 31.8332 33.5601 33.8559 28.2331 34.4474C29.0906 35.1854 29.8554 36.6433 29.8554 38.8721C29.8554 42.0659 29.8256 44.6442 29.8256 45.43C29.8256 46.0693 30.2558 46.8132 31.4688 46.5802C40.9605 43.4103 47.8022 34.4594 47.8022 23.9011C47.8022 10.7017 37.1004 0 23.8981 0Z" fill="black"/>
</svg>
